<?xml version="1.0" encoding="iso-8859-1"?>
<!-- Generator: Adobe Illustrator 18.0.0, SVG Export Plug-In . SVG Version: 6.00 Build 0)  -->
<!DOCTYPE svg PUBLIC "-//W3C//DTD SVG 1.1//EN" "http://www.w3.org/Graphics/SVG/1.1/DTD/svg11.dtd">
<svg version="1.1" id="Layer_1" xmlns="http://www.w3.org/2000/svg" xmlns:xlink="http://www.w3.org/1999/xlink" x="0px" y="0px"
	 viewBox="0 0 64 64" enable-background="new 0 0 64 64" xml:space="preserve">
<g>
	<path d="M37.2421455,15.5300293c4,0,7.2600098-3.2600098,7.2600098-7.2700195c0-4-3.2600098-7.2600098-7.2600098-7.2600098
		c-4.0100098,0-7.2699604,3.2600098-7.2699604,7.2600098C29.9721851,12.2700195,33.2321358,15.5300293,37.2421455,15.5300293z"/>
	<path d="M46.9021797,29.3800049v5.1700439c0,1.6115723,1.2952271,2.8800049,2.8699951,2.8800049
		c1.5899658,0,2.8699951-1.2900391,2.8699951-2.8800049v-6.7300415c0-1.8099976-1.0300293-3.4599609-2.6600342-4.25l-4.6599731-2.25
		v6.7300415l0.7000122,0.1900024C46.5421333,28.3800049,46.9021797,28.8400269,46.9021797,29.3800049z"/>
	<path d="M10.3788013,15.4307861c-0.4453125-0.3276367-1.0708008-0.2314453-1.3979492,0.2133789
		c-1.8876948,2.565918-2.6582026,5.7124023-2.1699214,8.8583984c0.0766602,0.4936523,0.5024414,0.8466797,0.9868164,0.8466797
		c0.6183867,0,1.083075-0.5501881,0.9897456-1.1533203c-0.40625-2.6162109,0.2348633-5.2324219,1.8046875-7.3671875
		C10.9193287,16.3839111,10.8241138,15.7579346,10.3788013,15.4307861z"/>
	<path d="M12.2030201,18.0142822c-1.2519531,1.7021484-1.7631836,3.7885742-1.4394531,5.875
		c0.0766602,0.4936523,0.5024414,0.8466797,0.9868164,0.8466797c0.6183872,0,1.0830755-0.5501881,0.9897461-1.1533203
		c-0.2416992-1.5566406,0.1396484-3.1132813,1.0742188-4.3828125c0.3271484-0.4448242,0.2319336-1.0708008-0.2128906-1.3984375
		C13.1556568,17.4747314,12.5316334,17.5704346,12.2030201,18.0142822z"/>
	<path d="M16.8547535,25.0093384l7.7794189,5.6588745c1.4233398,1.0353394,3.3048706,1.1919556,4.8798218,0.406189
		l7.0948505-3.539917c1.1330566-0.5653076,1.7808228-1.7889404,1.6113892-3.0438232
		c-0.2733765-2.0241699-2.4667358-3.1692505-4.2838135-2.2364502l-5.8418598,2.9989014
		c-0.3951416,0.2028198-0.8707275,0.1664429-1.2303467-0.0942383l-6.6295166-4.8046265
		c-1.27948-0.9273682-3.0675049-0.6488037-4.0043335,0.6237793C15.2848072,22.2625122,15.5648975,24.071106,16.8547535,25.0093384z"
		/>
	<path d="M43.3221626,36.6800537V21.3200073c0-1.8499756-1.5100098-3.3499756-3.3599854-3.3499756H35.222187
		c-2.4500122,0-4.5200214,1.6900024-5.080019,3.9799805l2.8800068-1.4799805
		c0.7099609-0.3599854,1.4699707-0.5499878,2.2600098-0.5499878c2.4799805,0,4.5899658,1.8499756,4.9199829,4.2999878
		c0.2799683,2.1099854-0.7999878,4.1599731-2.7000122,5.0999756l-7.0999775,3.5400391
		C30.2621632,32.9300537,30.1221485,33,29.9821339,33.0600586v2.5199585l-7.6499634,5.3800049
		c-1.1500244,0.8099976-2.0100098,1.9299927-2.5,3.25l-4.6000366,12.4799805C14.1185293,59.6949272,16.3388729,63,19.6321583,63
		c1.9500122,0,3.6599731-1.1699829,4.3699951-2.9699707l4.7000122-11.9400024
		c0.3599854-0.9099731,1.0499878-1.6300049,1.9400024-2.0299683l9.2999897-4.1600342
		C41.9921455,40.9800415,43.3221626,38.9300537,43.3221626,36.6800537z"/>
	<path d="M53.7921333,48.2400513l-10.3699951-1.8900146c-0.0899658-0.0100098-0.1499634-0.0800171-0.1499634-0.1699829
		l-0.2000122-4.0599976c-0.6600342,0.6599731-1.4299927,1.2099609-2.3099976,1.5999756l-7.1799927,3.2199707l-0.0200195,0.5500488
		c-0.1300049,3.4499512,2.3400269,6.4899902,5.75,7.0599976l12.9899902,2.1699829
		c2.3530846,0.534584,5.0300293-1.4249535,5.0300293-4.25C57.3321724,50.3900146,55.8421822,48.6100464,53.7921333,48.2400513z"/>
	<path d="M52.5321236,43.6348877c-0.5385742,0.121582-0.8769531,0.6567383-0.7553711,1.1958008
		c0.1215897,0.5378227,0.6556854,0.8761864,1.1958008,0.7553711c1.2944336-0.2919922,2.4921875-0.840332,3.5600586-1.6298828
		c0.4443359-0.328125,0.5380859-0.9545898,0.2099609-1.3984375c-0.3286133-0.4448242-0.9550781-0.5390625-1.3984375-0.2099609
		C54.5003853,42.9713135,53.5545845,43.4044189,52.5321236,43.6348877z"/>
	<path d="M50.6693306,40.0509033c-0.5522461,0-1,0.4477539-1,1c0,1.9645729,4.5865059,1.0128403,6.2392578-1.9428711
		c0.2695313-0.4819336,0.097168-1.0913086-0.3852539-1.3608398c-0.4819336-0.2695313-1.0913086-0.0966797-1.3608398,0.3852539
		C52.9559822,40.2899208,50.7694168,40.02491,50.6693306,40.0509033z"/>
</g>
</svg>
